HIERARCHY
ROOT SpineBase
{
  OFFSET 0.000000 0.000000 0.000000
  CHANNELS 6 Xposition Yposition Zposition Zrotation Xrotation Yrotation
  JOINT SpineMid
  {
    OFFSET 0.000000 30.033542 0.000000
    CHANNELS 3 Zrotation Xrotation Yrotation
    JOINT SpineShoulder
    {
      OFFSET 0.060104 22.376495 -0.713220
      CHANNELS 3 Zrotation Xrotation Yrotation
      JOINT Neck
      {
        OFFSET 0.035546 7.432199 -0.547792
        CHANNELS 3 Zrotation Xrotation Yrotation
        JOINT Head
        {
          OFFSET 2.270739 14.496844 -2.071793
          CHANNELS 3 Zrotation Xrotation Yrotation
          End Site
          {
            OFFSET 0 0 0
          }
        }
      }
      JOINT ShoulderLeft
      {
        OFFSET -15.581928 -1.728837 -5.767068
        CHANNELS 3 Zrotation Xrotation Yrotation
        JOINT ElbowLeft
        {
          OFFSET -6.873071 -22.144170 -3.420533
          CHANNELS 3 Zrotation Xrotation Yrotation
          JOINT WristLeft
          {
            OFFSET -0.628240 -19.931561 -6.860493
            CHANNELS 3 Zrotation Xrotation Yrotation
            JOINT HandLeft
            {
              OFFSET 0.231763 -6.811419 -0.431037
              CHANNELS 3 Zrotation Xrotation Yrotation
              JOINT HandTipLeft
              {
                OFFSET 0.952318 -6.374387 -0.415989
                CHANNELS 3 Zrotation Xrotation Yrotation
                End Site
                {
                  OFFSET 0 0 0
                }
              }
              JOINT ThumbLeft
              {
                OFFSET 2.856452 0.314645 -0.977333
                CHANNELS 3 Zrotation Xrotation Yrotation
                End Site
                {
                  OFFSET 0 0 0
                }
              }
            }
          }
        }
      }
      JOINT ShoulderRight
      {
        OFFSET 15.978441 -4.090410 3.919363
        CHANNELS 3 Zrotation Xrotation Yrotation
        JOINT ElbowRight
        {
          OFFSET 2.030183 -24.759047 2.312079
          CHANNELS 3 Zrotation Xrotation Yrotation
          JOINT WristRight
          {
            OFFSET -0.164182 -20.814612 -8.535707
            CHANNELS 3 Zrotation Xrotation Yrotation
            JOINT HandRight
            {
              OFFSET -1.113544 -3.676174 -1.279184
              CHANNELS 3 Zrotation Xrotation Yrotation
              JOINT HandTipRight
              {
                OFFSET 0.675772 -5.992697 -1.364657
                CHANNELS 3 Zrotation Xrotation Yrotation
                End Site
                {
                  OFFSET 0 0 0
                }
              }
              JOINT ThumbRight
              {
                OFFSET -3.997604 -1.149014 -1.818788
                CHANNELS 3 Zrotation Xrotation Yrotation
                End Site
                {
                  OFFSET 0 0 0
                }
              }
            }
          }
        }
      }
    }
  }
  JOINT HipLeft
  {
    OFFSET -6.758465 1.630202 -4.850433
    CHANNELS 3 Zrotation Xrotation Yrotation
    JOINT KneeLeft
    {
      OFFSET -5.657852 -26.248096 -0.370047
      CHANNELS 3 Zrotation Xrotation Yrotation
      JOINT AnkleLeft
      {
        OFFSET -7.751641 -35.469216 9.725560
        CHANNELS 3 Zrotation Xrotation Yrotation
        JOINT FootLeft
        {
          OFFSET 1.994538 -2.136184 -9.828440
          CHANNELS 3 Zrotation Xrotation Yrotation
          End Site
          {
            OFFSET 0 0 0
          }
        }
      }
    }
  }
  JOINT HipRight
  {
    OFFSET 6.870264 0.656943 -1.772527
    CHANNELS 3 Zrotation Xrotation Yrotation
    JOINT KneeRight
    {
      OFFSET -1.559520 -28.142299 0.789104
      CHANNELS 3 Zrotation Xrotation Yrotation
      JOINT AnkleRight
      {
        OFFSET -5.663681 -34.343620 4.860466
        CHANNELS 3 Zrotation Xrotation Yrotation
        JOINT FootRight
        {
          OFFSET 0.689923 -6.578903 -5.388159
          CHANNELS 3 Zrotation Xrotation Yrotation
          End Site
          {
            OFFSET 0 0 0
          }
        }
      }
    }
  }
}
MOTION
Frames: 10
Frame Time: 0.033333
6.538844 68.544848 316.541603 -3.613548 1.226811 -9.176421 0.150983 -0.154209 9.097011 0.175301 -0.129711 -0.136899 -3.308891 -3.817110 -0.487244 0.000000 0.000000 0.000000 0.575902 -2.251938 1.033325 3.765813 5.260836 -1.365023 1.041498 9.431868 0.644290 -3.695328 -6.435340 0.295442 0.000000 0.000000 0.000000 0.000000 0.000000 0.000000 -5.796427 -10.969347 -2.348540 17.158942 11.913342 -4.076568 -62.844470 17.645612 20.606443 47.410390 -33.611305 3.155147 0.000000 0.000000 0.000000 0.000000 0.000000 0.000000 0.364933 25.161294 4.275641 0.398378 -26.043442 5.194071 -4.042432 -25.869499 10.558693 0.000000 0.000000 0.000000 -0.347263 -2.059326 9.060960 -5.216031 -1.832499 -0.944948 20.287755 33.399677 -6.826513 0.000000 0.000000 0.000000
6.744403 68.447256 315.976304 -3.995749 1.049062 -9.042252 0.162423 -0.155939 8.948625 0.186353 -0.129132 -0.151800 -2.617625 -3.713121 -0.376874 0.000000 0.000000 0.000000 0.373395 -2.830775 1.349790 3.294545 5.348398 -1.269425 0.268678 11.005544 0.530797 -1.346873 -7.474391 0.379519 0.000000 0.000000 0.000000 0.000000 0.000000 0.000000 -6.138742 -9.276526 -2.182783 18.125060 10.427192 -3.994580 -63.012268 13.271214 20.068872 48.221603 -29.802755 0.465052 0.000000 0.000000 0.000000 0.000000 0.000000 0.000000 1.204563 28.041444 3.510333 1.050431 -25.480353 5.827942 -5.331063 -30.005326 10.835378 0.000000 0.000000 0.000000 0.593437 -1.926107 8.970282 -5.823817 -1.951094 -0.921699 24.463365 35.072295 -10.641047 0.000000 0.000000 0.000000
7.086260 68.218063 314.751423 -4.218237 0.849801 -8.968264 0.179493 -0.145269 8.863211 0.200323 -0.122108 -0.159119 -2.476611 -3.739054 -0.336212 0.000000 0.000000 0.000000 0.017441 -3.387455 1.640481 2.830275 5.448409 -1.165715 -0.349857 10.864586 0.377983 1.179551 -7.045261 0.556982 0.000000 0.000000 0.000000 0.000000 0.000000 0.000000 -6.549222 -7.940452 -2.052783 18.931267 9.513823 -3.928530 -63.982960 7.386433 19.467605 48.649483 -26.176845 -3.546183 0.000000 0.000000 0.000000 0.000000 0.000000 0.000000 2.133436 30.278124 2.833553 1.344370 -22.891833 5.920849 -6.277068 -32.457226 9.429724 0.000000 0.000000 0.000000 1.484531 -2.473319 8.954316 -6.461675 -1.837259 -0.806819 38.403643 40.436359 -23.519968 0.000000 0.000000 0.000000
7.452802 67.913529 313.179608 -4.322289 0.623037 -9.310539 0.208420 -0.125145 9.196183 0.219526 -0.110626 -0.160311 -2.668122 -3.495517 -0.364743 0.000000 0.000000 0.000000 -0.419216 -3.530507 1.802155 2.406487 5.079331 -0.967103 -0.276685 11.829077 0.209668 2.105691 -6.940832 0.660167 0.000000 0.000000 0.000000 0.000000 0.000000 0.000000 -7.019480 -6.465475 -1.881469 19.639508 8.537699 -3.817917 -63.893947 1.806949 18.448547 48.993544 -21.848935 -7.117070 0.000000 0.000000 0.000000 0.000000 0.000000 0.000000 2.854232 31.582612 2.767158 1.391790 -18.399460 5.455850 -6.217870 -30.292313 7.103085 0.000000 0.000000 0.000000 2.375132 -3.087761 9.364700 -7.159379 -1.780926 -0.657039 59.831428 51.336379 -43.763190 0.000000 0.000000 0.000000
8.007704 67.558962 311.657411 -4.226978 0.371024 -9.695435 0.232479 -0.113392 9.575793 0.234824 -0.104838 -0.153758 -3.272672 -3.296507 -0.432738 0.000000 0.000000 0.000000 -0.698720 -3.277107 1.813929 1.658252 4.637074 -0.620337 0.161511 12.244076 -0.012281 2.257122 -5.737665 0.831875 0.000000 0.000000 0.000000 0.000000 0.000000 0.000000 -7.563596 -5.129855 -1.718585 20.182157 7.753860 -3.702316 -64.244302 -3.186570 17.604350 47.139282 -18.272957 -10.524386 0.000000 0.000000 0.000000 0.000000 0.000000 0.000000 2.980628 32.948044 2.820603 1.664933 -14.073026 4.974351 -6.231804 -30.024518 6.593093 0.000000 0.000000 0.000000 2.393802 -3.742082 9.777985 -7.081509 -1.756256 -0.496921 83.616165 61.591724 -66.992648 0.000000 0.000000 0.000000
8.422640 67.084289 309.284194 -4.202063 0.199969 -10.333891 0.258223 -0.089953 10.210331 0.255123 -0.095861 -0.149699 -4.082105 -3.056426 -0.557658 0.000000 0.000000 0.000000 -0.656422 -2.776399 1.703463 1.118640 3.959146 -0.331859 -0.114870 11.122060 -0.131095 2.098494 -2.005513 1.192806 0.000000 0.000000 0.000000 0.000000 0.000000 0.000000 -7.926096 -3.965294 -1.553540 20.578734 6.988572 -3.578201 -63.648044 -7.170532 16.699847 46.458156 -16.726934 -13.322342 0.000000 0.000000 0.000000 0.000000 0.000000 0.000000 3.147709 33.765445 3.248019 1.909605 -9.377705 4.356194 -6.294627 -29.665385 6.137101 0.000000 0.000000 0.000000 2.936268 -4.712687 10.490500 -7.191596 -1.323908 -0.291907 98.299048 71.483578 -82.040164 0.000000 0.000000 0.000000
8.589548 66.486963 306.707492 -4.296430 0.303602 -10.652650 0.292508 -0.073010 10.531496 0.281307 -0.092931 -0.150116 -4.643132 -3.047737 -0.677145 0.000000 0.000000 0.000000 -0.523499 -2.114318 1.476500 1.113583 3.003249 -0.139229 -0.043290 10.840883 -0.147448 1.491864 -0.343910 1.375616 0.000000 0.000000 0.000000 0.000000 0.000000 0.000000 -8.070478 -3.259255 -1.441333 20.831953 6.357736 -3.470771 -64.280847 -6.320158 16.810809 46.413513 -19.640352 -13.213149 0.000000 0.000000 0.000000 0.000000 0.000000 0.000000 4.252657 33.781506 3.260233 1.713862 -4.581548 3.481760 -6.726752 -30.448323 6.298898 0.000000 0.000000 0.000000 3.785874 -6.151842 10.929836 -7.378867 -0.543981 -0.069709 92.033767 80.445135 -76.554402 0.000000 0.000000 0.000000
8.599278 65.850187 303.170015 -4.491077 0.528231 -10.795401 0.299411 -0.078912 10.677003 0.285568 -0.097374 -0.157947 -5.287688 -2.998010 -0.848130 0.000000 0.000000 0.000000 -0.059651 -1.432841 1.201937 1.541064 2.073151 -0.108147 -0.493093 10.055146 0.003643 0.400176 2.447621 1.714668 0.000000 0.000000 0.000000 0.000000 0.000000 0.000000 -8.025987 -3.211479 -1.432709 21.005756 6.196552 -3.438545 -64.291425 -3.889773 17.090293 45.743776 -23.244150 -12.095281 0.000000 0.000000 0.000000 0.000000 0.000000 0.000000 6.563152 33.696645 2.785394 0.435864 -1.133493 2.419861 -6.882075 -31.881564 5.829772 0.000000 0.000000 0.000000 5.547951 -8.686240 11.361200 -8.180210 1.499770 0.268013 31.952774 83.798019 -17.289182 0.000000 0.000000 0.000000
8.450159 65.245966 299.314022 -4.720110 0.829699 -10.610524 0.301698 -0.093403 10.497455 0.288486 -0.106417 -0.167711 -5.912523 -3.167698 -1.019465 0.000000 0.000000 0.000000 0.636122 -0.959906 0.941202 2.298875 1.857173 -0.266579 -1.151774 9.875860 0.351983 0.398347 3.496322 1.914567 0.000000 0.000000 0.000000 0.000000 0.000000 0.000000 -7.787347 -3.770997 -1.513191 20.972934 6.445575 -3.479991 -64.226661 3.184642 18.098387 45.109691 -30.795417 -8.092055 0.000000 0.000000 0.000000 0.000000 0.000000 0.000000 9.636331 33.139861 1.894908 -1.507101 1.402200 1.246072 -7.239349 -37.243261 4.238277 0.000000 0.000000 0.000000 7.444891 -10.506353 11.505330 -8.831402 5.627841 0.327822 -0.540800 73.309037 13.853224 0.000000 0.000000 0.000000
8.315285 64.770729 295.423120 -4.866328 1.097740 -10.524120 0.303975 -0.104642 10.418181 0.291157 -0.117636 -0.174029 -6.689197 -2.117426 -1.282176 0.000000 0.000000 0.000000 1.340017 -0.253519 0.603814 3.231334 1.265011 -0.416828 -1.217436 10.779216 0.706207 -0.355101 1.877180 1.740589 0.000000 0.000000 0.000000 0.000000 0.000000 0.000000 -7.605579 -4.686692 -1.662412 20.845782 6.929900 -3.549935 -64.453326 14.140151 19.825788 47.272520 -42.521369 -0.569551 0.000000 0.000000 0.000000 0.000000 0.000000 0.000000 12.318926 32.963876 1.108923 -3.295642 1.746817 0.710192 -6.513624 -34.433577 2.585631 0.000000 0.000000 0.000000 8.786062 -11.978602 11.708568 -9.960514 6.395050 0.595518 -2.293872 61.261870 14.892115 0.000000 0.000000 0.000000
